<?xml version="1.0" encoding="UTF-8"?>
<svg version="1.1" xmlns="http://www.w3.org/2000/svg" width="192" height="192">
<path d="M0 0 C1.12349854 -0.00525696 2.24699707 -0.01051392 3.40454102 -0.01593018 C7.08567577 -0.02903807 10.76637129 -0.02042392 14.44750977 -0.01025391 C17.02621035 -0.01227742 19.60491037 -0.01519117 22.18360901 -0.01895142 C27.57575489 -0.02336245 32.96773852 -0.01727405 38.35986328 -0.00292969 C44.56348973 0.01338455 50.76682011 0.00810887 56.97043937 -0.0084089 C62.9756399 -0.02374882 68.9806975 -0.02201624 74.98591805 -0.0132637 C77.52426254 -0.01127238 80.06261467 -0.01368315 82.60095024 -0.02070236 C86.15864501 -0.02838216 89.71578378 -0.01662068 93.2734375 0 C94.3070491 -0.00607269 95.34066071 -0.01214539 96.40559387 -0.0184021 C108.83251536 0.08831801 120.96857066 3.05635822 130.49047852 11.39208984 C140.90749137 22.29679057 143.5046462 35.3567599 143.49194336 49.92797852 C143.49866058 51.04797241 143.50537781 52.16796631 143.51229858 53.32189941 C143.53120972 57.00419623 143.5351995 60.68631006 143.53735352 64.36865234 C143.54378678 66.94542005 143.55051553 69.52218704 143.55752563 72.09895325 C143.56948164 77.49461877 143.57329431 82.89021254 143.57202148 88.28588867 C143.57082232 94.48834225 143.59189082 100.69044661 143.62350881 106.89281195 C143.65300576 112.89692762 143.65999233 118.90085646 143.65880203 124.90505409 C143.661149 127.44175961 143.66992101 129.97846822 143.68546677 132.51512718 C143.78841323 151.04999754 143.76048333 166.77069565 130.58032227 181.15771484 C120.45301031 190.75073216 106.95173831 192.69448024 93.61401367 192.6628418 C91.92679451 192.67050819 91.92679451 192.67050819 90.20549011 192.67832947 C86.50876457 192.69216314 82.81222677 192.69127335 79.11547852 192.68896484 C76.53152396 192.69285516 73.94757004 192.69719053 71.36361694 192.70195007 C65.95535941 192.70939891 60.54717389 192.70927013 55.13891602 192.70385742 C48.91260275 192.69782121 42.68651566 192.71012775 36.46024096 192.73142749 C30.44010528 192.75125471 24.42008695 192.75420697 18.39991379 192.75069237 C15.85236454 192.75120392 13.30481156 192.75641038 10.75728226 192.76650429 C7.18721609 192.7789147 3.61766604 192.77204895 0.04760742 192.76049805 C-1.51291603 192.77196365 -1.51291603 192.77196365 -3.10496521 192.78366089 C-15.45003762 192.69589001 -27.77614427 189.306359 -37.04858398 180.82568359 C-46.88040412 170.27737454 -49.10617033 157.67719138 -49.07324219 143.81665039 C-49.07835312 142.69344391 -49.08346405 141.57023743 -49.08872986 140.41299438 C-49.10256453 136.72107529 -49.10167353 133.02934419 -49.09936523 129.33740234 C-49.10325577 126.75584342 -49.10759118 124.17428513 -49.11235046 121.59272766 C-49.11979972 116.18866628 -49.11967046 110.78467696 -49.11425781 105.38061523 C-49.10822465 99.1622742 -49.12052023 92.94415982 -49.14182788 86.72585744 C-49.16166917 80.71106455 -49.16460559 74.69638905 -49.16109276 68.68155861 C-49.16160396 66.13762696 -49.16680361 63.59369154 -49.17690468 61.04977989 C-49.18933145 57.48231253 -49.18243944 53.91536038 -49.17089844 50.34790039 C-49.17854218 49.3111467 -49.18618591 48.27439301 -49.19406128 47.20622253 C-49.10609666 34.81666128 -46.19710717 22.43840822 -37.68920898 13.06396484 C-26.93362954 3.0316054 -14.4728398 -0.08486488 0 0 Z " fill="#FEFEFE" transform="translate(48.798583984375,-0.38818359375)"/>
<path d="M0 0 C0.9925177 -0.00563965 1.9850354 -0.0112793 3.00762939 -0.01708984 C4.08518494 -0.01304138 5.16274048 -0.00899292 6.27294922 -0.00482178 C7.41656921 -0.00832642 8.56018921 -0.01183105 9.73846436 -0.01544189 C13.51825025 -0.02424343 17.29784893 -0.01841548 21.07763672 -0.01165771 C23.70410193 -0.01300481 26.33056689 -0.01494572 28.95703125 -0.01745605 C34.46144641 -0.02109166 39.96580785 -0.01630727 45.47021484 -0.0067749 C51.82830422 0.0041089 58.18626531 0.00058303 64.54435158 -0.01042771 C70.66807375 -0.02060695 76.79173919 -0.01951721 82.91546631 -0.01366425 C85.518209 -0.01232931 88.12095497 -0.01397 90.72369385 -0.01862335 C94.35999242 -0.0236977 97.99604406 -0.01596521 101.63232422 -0.00482178 C102.70987976 -0.00887024 103.7874353 -0.0129187 104.89764404 -0.01708984 C105.89016174 -0.0114502 106.88267944 -0.00581055 107.90527344 0 C108.76434296 0.00075405 109.62341248 0.0015081 110.5085144 0.002285 C116.10553007 0.57863491 119.37800102 3.00304915 122.95263672 7.25396729 C124.93168589 11.93787043 125.2393801 16.25963346 125.21142578 21.27545166 C125.21668274 22.44736809 125.21668274 22.44736809 125.2220459 23.64295959 C125.23080862 26.21130402 125.22503345 28.77937032 125.21826172 31.34771729 C125.21960994 33.14080864 125.22155178 34.93389964 125.22406006 36.72698975 C125.22700392 40.47934459 125.22273741 44.23160402 125.21337891 47.98394775 C125.20198482 52.78563788 125.20854824 57.58710439 125.22052383 62.38878632 C125.22776234 66.08973871 125.22544536 69.79063839 125.22026825 73.49159241 C125.21893726 75.2617648 125.22056012 77.03194203 125.22522736 78.80210876 C125.23032535 81.27902852 125.22253658 83.75558974 125.21142578 86.23248291 C125.21547424 86.95889481 125.21952271 87.6853067 125.22369385 88.43373108 C125.1880068 92.74380247 124.53116404 96.24492508 122.95263672 100.25396729 C122.29263672 100.25396729 121.63263672 100.25396729 120.95263672 100.25396729 C120.62263672 101.24396729 120.29263672 102.23396729 119.95263672 103.25396729 C114.36455199 107.33142036 108.15889022 106.63584634 101.55419922 106.54693604 C99.76905411 106.54056877 99.76905411 106.54056877 97.94784546 106.53407288 C94.15754297 106.51731897 90.36777774 106.47967145 86.57763672 106.44146729 C84.00342566 106.42641626 81.42920625 106.41272859 78.85498047 106.40045166 C72.55399311 106.36742599 66.25340592 106.31566509 59.95263672 106.25396729 C59.95263672 111.53396729 59.95263672 116.81396729 59.95263672 122.25396729 C61.60134766 122.24236572 63.25005859 122.23076416 64.94873047 122.21881104 C67.09586476 122.2094349 69.24300027 122.20033452 71.39013672 122.19146729 C72.47875 122.18308838 73.56736328 122.17470947 74.68896484 122.16607666 C75.7234375 122.162854 76.75791016 122.15963135 77.82373047 122.15631104 C78.78206787 122.15107422 79.74040527 122.1458374 80.7277832 122.14044189 C82.95263672 122.25396729 82.95263672 122.25396729 83.95263672 123.25396729 C84.14013672 125.69146729 84.14013672 125.69146729 83.95263672 128.25396729 C81.34458442 130.86201958 80.24881732 130.50688515 76.61669922 130.51275635 C75.50214355 130.51906067 74.38758789 130.52536499 73.23925781 130.53186035 C72.03092285 130.52781189 70.82258789 130.52376343 69.57763672 130.51959229 C67.72452881 130.52246246 67.72452881 130.52246246 65.83398438 130.52539062 C62.54672265 130.52710339 59.25964885 130.51903428 55.97241211 130.50787354 C53.95469142 130.50397126 51.93714471 130.50785899 49.91943359 130.51470947 C46.05541843 130.52702732 42.19166244 130.52557706 38.32763672 130.51959229 C37.11930176 130.52364075 35.9109668 130.52768921 34.66601562 130.53186035 C33.55145996 130.52555603 32.4369043 130.51925171 31.28857422 130.51275635 C30.30421387 130.51116516 29.31985352 130.50957397 28.30566406 130.50793457 C25.95263672 130.25396729 25.95263672 130.25396729 23.95263672 128.25396729 C23.76513672 125.69146729 23.76513672 125.69146729 23.95263672 123.25396729 C24.95263672 122.25396729 24.95263672 122.25396729 27.17749023 122.14044189 C28.61499634 122.14829712 28.61499634 122.14829712 30.08154297 122.15631104 C31.11601563 122.15953369 32.15048828 122.16275635 33.21630859 122.16607666 C34.30492187 122.17445557 35.39353516 122.18283447 36.51513672 122.19146729 C38.15385742 122.19823486 38.15385742 122.19823486 39.82568359 122.20513916 C42.53469103 122.21696889 45.24367052 122.23490497 47.95263672 122.25396729 C47.95263672 116.97396729 47.95263672 111.69396729 47.95263672 106.25396729 C45.5460376 106.27753296 45.5460376 106.27753296 43.09082031 106.30157471 C37.13091056 106.35592838 31.17102268 106.39033754 25.2109375 106.41876221 C22.632775 106.43383634 20.0546381 106.45429896 17.4765625 106.48028564 C13.7680021 106.51672815 10.05978118 106.5337078 6.35107422 106.54693604 C5.20085785 106.56241989 4.05064148 106.57790375 2.86557007 106.59385681 C-7.46712847 106.59602336 -7.46712847 106.59602336 -12.04736328 103.25396729 C-12.37736328 102.26396729 -12.70736328 101.27396729 -13.04736328 100.25396729 C-13.70736328 100.25396729 -14.36736328 100.25396729 -15.04736328 100.25396729 C-17.20988383 95.8807814 -17.33761082 91.83478243 -17.32202148 87.05474854 C-17.32713242 86.24274994 -17.33224335 85.43075134 -17.33750916 84.59414673 C-17.35137493 81.91817799 -17.3504509 79.24246761 -17.34814453 76.56646729 C-17.35203263 74.70228988 -17.35636754 72.83811336 -17.36112976 70.97393799 C-17.36858512 67.07018153 -17.36830529 63.16651553 -17.36303711 59.26275635 C-17.35723818 54.26245499 -17.37418699 49.26252352 -17.39738178 44.26228333 C-17.4121178 40.41381672 -17.41299109 36.56543928 -17.40987206 32.71694946 C-17.41038516 30.87337511 -17.41562092 29.02979574 -17.42568398 27.18624878 C-17.43803086 24.60831681 -17.43126781 22.03110659 -17.41967773 19.45318604 C-17.42732147 18.6935556 -17.43496521 17.93392517 -17.44284058 17.15127563 C-17.38553816 11.38014492 -15.84700218 8.353546 -12.17236328 4.06646729 C-8.44093144 0.88377542 -4.83455512 0.00424355 0 0 Z " fill="#FEFEFE" transform="translate(42.04736328125,30.74603271484375)"/>
<path d="M0 0 C0.9925177 -0.00563965 1.9850354 -0.0112793 3.00762939 -0.01708984 C4.08518494 -0.01304138 5.16274048 -0.00899292 6.27294922 -0.00482178 C7.41656921 -0.00832642 8.56018921 -0.01183105 9.73846436 -0.01544189 C13.51825025 -0.02424343 17.29784893 -0.01841548 21.07763672 -0.01165771 C23.70410193 -0.01300481 26.33056689 -0.01494572 28.95703125 -0.01745605 C34.46144641 -0.02109166 39.96580785 -0.01630727 45.47021484 -0.0067749 C51.82830422 0.0041089 58.18626531 0.00058303 64.54435158 -0.01042771 C70.66807375 -0.02060695 76.79173919 -0.01951721 82.91546631 -0.01366425 C85.518209 -0.01232931 88.12095497 -0.01397 90.72369385 -0.01862335 C94.35999242 -0.0236977 97.99604406 -0.01596521 101.63232422 -0.00482178 C102.70987976 -0.00887024 103.7874353 -0.0129187 104.89764404 -0.01708984 C105.89016174 -0.0114502 106.88267944 -0.00581055 107.90527344 0 C108.76434296 0.00075405 109.62341248 0.0015081 110.5085144 0.002285 C116.10553007 0.57863491 119.37800102 3.00304915 122.95263672 7.25396729 C124.93168589 11.93787043 125.2393801 16.25963346 125.21142578 21.27545166 C125.21668274 22.44736809 125.21668274 22.44736809 125.2220459 23.64295959 C125.23080862 26.21130402 125.22503345 28.77937032 125.21826172 31.34771729 C125.21960994 33.14080864 125.22155178 34.93389964 125.22406006 36.72698975 C125.22700392 40.47934459 125.22273741 44.23160402 125.21337891 47.98394775 C125.20198482 52.78563788 125.20854824 57.58710439 125.22052383 62.38878632 C125.22776234 66.08973871 125.22544536 69.79063839 125.22026825 73.49159241 C125.21893726 75.2617648 125.22056012 77.03194203 125.22522736 78.80210876 C125.23032535 81.27902852 125.22253658 83.75558974 125.21142578 86.23248291 C125.21547424 86.95889481 125.21952271 87.6853067 125.22369385 88.43373108 C125.1880068 92.74380247 124.53116404 96.24492508 122.95263672 100.25396729 C122.29263672 100.25396729 121.63263672 100.25396729 120.95263672 100.25396729 C120.62263672 101.24396729 120.29263672 102.23396729 119.95263672 103.25396729 C114.36455199 107.33142036 108.15889022 106.63584634 101.55419922 106.54693604 C99.76905411 106.54056877 99.76905411 106.54056877 97.94784546 106.53407288 C94.15754297 106.51731897 90.36777774 106.47967145 86.57763672 106.44146729 C84.00342566 106.42641626 81.42920625 106.41272859 78.85498047 106.40045166 C72.55399311 106.36742599 66.25340592 106.31566509 59.95263672 106.25396729 C59.95263672 111.53396729 59.95263672 116.81396729 59.95263672 122.25396729 C61.60134766 122.24236572 63.25005859 122.23076416 64.94873047 122.21881104 C67.09586476 122.2094349 69.24300027 122.20033452 71.39013672 122.19146729 C72.47875 122.18308838 73.56736328 122.17470947 74.68896484 122.16607666 C75.7234375 122.162854 76.75791016 122.15963135 77.82373047 122.15631104 C78.78206787 122.15107422 79.74040527 122.1458374 80.7277832 122.14044189 C82.95263672 122.25396729 82.95263672 122.25396729 83.95263672 123.25396729 C84.14013672 125.69146729 84.14013672 125.69146729 83.95263672 128.25396729 C81.34458442 130.86201958 80.24881732 130.50688515 76.61669922 130.51275635 C75.50214355 130.51906067 74.38758789 130.52536499 73.23925781 130.53186035 C72.03092285 130.52781189 70.82258789 130.52376343 69.57763672 130.51959229 C67.72452881 130.52246246 67.72452881 130.52246246 65.83398438 130.52539062 C62.54672265 130.52710339 59.25964885 130.51903428 55.97241211 130.50787354 C53.95469142 130.50397126 51.93714471 130.50785899 49.91943359 130.51470947 C46.05541843 130.52702732 42.19166244 130.52557706 38.32763672 130.51959229 C37.11930176 130.52364075 35.9109668 130.52768921 34.66601562 130.53186035 C33.55145996 130.52555603 32.4369043 130.51925171 31.28857422 130.51275635 C30.30421387 130.51116516 29.31985352 130.50957397 28.30566406 130.50793457 C25.95263672 130.25396729 25.95263672 130.25396729 23.95263672 128.25396729 C23.76513672 125.69146729 23.76513672 125.69146729 23.95263672 123.25396729 C24.95263672 122.25396729 24.95263672 122.25396729 27.17749023 122.14044189 C28.61499634 122.14829712 28.61499634 122.14829712 30.08154297 122.15631104 C31.11601563 122.15953369 32.15048828 122.16275635 33.21630859 122.16607666 C34.30492187 122.17445557 35.39353516 122.18283447 36.51513672 122.19146729 C38.15385742 122.19823486 38.15385742 122.19823486 39.82568359 122.20513916 C42.53469103 122.21696889 45.24367052 122.23490497 47.95263672 122.25396729 C47.95263672 116.97396729 47.95263672 111.69396729 47.95263672 106.25396729 C45.5460376 106.27753296 45.5460376 106.27753296 43.09082031 106.30157471 C37.13091056 106.35592838 31.17102268 106.39033754 25.2109375 106.41876221 C22.632775 106.43383634 20.0546381 106.45429896 17.4765625 106.48028564 C13.7680021 106.51672815 10.05978118 106.5337078 6.35107422 106.54693604 C5.20085785 106.56241989 4.05064148 106.57790375 2.86557007 106.59385681 C-7.46712847 106.59602336 -7.46712847 106.59602336 -12.04736328 103.25396729 C-12.37736328 102.26396729 -12.70736328 101.27396729 -13.04736328 100.25396729 C-13.70736328 100.25396729 -14.36736328 100.25396729 -15.04736328 100.25396729 C-17.20988383 95.8807814 -17.33761082 91.83478243 -17.32202148 87.05474854 C-17.32713242 86.24274994 -17.33224335 85.43075134 -17.33750916 84.59414673 C-17.35137493 81.91817799 -17.3504509 79.24246761 -17.34814453 76.56646729 C-17.35203263 74.70228988 -17.35636754 72.83811336 -17.36112976 70.97393799 C-17.36858512 67.07018153 -17.36830529 63.16651553 -17.36303711 59.26275635 C-17.35723818 54.26245499 -17.37418699 49.26252352 -17.39738178 44.26228333 C-17.4121178 40.41381672 -17.41299109 36.56543928 -17.40987206 32.71694946 C-17.41038516 30.87337511 -17.41562092 29.02979574 -17.42568398 27.18624878 C-17.43803086 24.60831681 -17.43126781 22.03110659 -17.41967773 19.45318604 C-17.42732147 18.6935556 -17.43496521 17.93392517 -17.44284058 17.15127563 C-17.38553816 11.38014492 -15.84700218 8.353546 -12.17236328 4.06646729 C-8.44093144 0.88377542 -4.83455512 0.00424355 0 0 Z M-9.04736328 8.25396729 C-11.7306072 11.79906145 -11.32923592 15.9178398 -11.30615234 20.17193604 C-11.30965698 20.96588776 -11.31316162 21.75983948 -11.31677246 22.57785034 C-11.32556631 25.19914524 -11.31974894 27.82016969 -11.31298828 30.44146729 C-11.31433561 32.26462862 -11.3162767 34.0877896 -11.31878662 35.91094971 C-11.3217347 39.73072736 -11.31745038 43.55041145 -11.30810547 47.37017822 C-11.29671113 52.26628569 -11.30327229 57.16217389 -11.3152504 62.05827332 C-11.32247751 65.8226283 -11.32017715 69.5869313 -11.31499481 73.35128784 C-11.31366067 75.1566063 -11.31529779 76.96192948 -11.31995392 78.76724243 C-11.3250331 81.29028831 -11.31728938 83.8129791 -11.30615234 86.33599854 C-11.31020081 87.08209381 -11.31424927 87.82818909 -11.31842041 88.59689331 C-11.28828061 92.28272175 -11.23968245 95.2029298 -9.04736328 98.25396729 C-5.80194448 100.41757982 -4.90617807 100.50706696 -1.15785217 100.52139282 C-0.14981033 100.52992279 0.85823151 100.53845276 1.89682007 100.54724121 C3.55434799 100.54588165 3.55434799 100.54588165 5.24536133 100.54449463 C6.4098027 100.55121185 7.57424408 100.55792908 8.77397156 100.56484985 C12.63435091 100.58389308 16.49455703 100.58775714 20.35498047 100.58990479 C22.35537923 100.59470523 24.35577803 100.59950888 26.35617548 100.60482562 C32.64704977 100.62111128 38.93786682 100.62599437 45.22875977 100.62457275 C51.71870696 100.62337089 58.20832183 100.64448082 64.69818491 100.67606008 C70.27025224 100.70220744 75.84221091 100.71294072 81.41433913 100.71166193 C84.74232962 100.71115188 88.06995784 100.71869355 91.39790154 100.73801804 C95.10905647 100.757551 98.81934961 100.75188931 102.53051758 100.73980713 C103.63351196 100.75104614 104.73650635 100.76228516 105.8729248 100.77386475 C106.88378647 100.76547577 107.89464813 100.75708679 108.93614197 100.7484436 C109.8134796 100.74953314 110.69081724 100.75062267 111.59474087 100.75174522 C114.73241167 100.08934815 115.92711995 98.6791817 117.95263672 96.25396729 C119.49169765 93.17584542 119.09993254 89.94088944 119.09790039 86.56304932 C119.101259 85.76938965 119.10461761 84.97572998 119.108078 84.15802002 C119.11760181 81.52592416 119.11953189 78.89389182 119.12060547 76.26177979 C119.12381728 74.43576023 119.12718129 72.60974093 119.13069153 70.78372192 C119.13668653 66.9520203 119.13853107 63.12034124 119.13793945 59.28863525 C119.13783786 54.37679239 119.15148551 49.46509418 119.16871166 44.5532856 C119.17982663 40.78035822 119.18185881 37.00746585 119.18132973 33.23452377 C119.18251078 31.42361833 119.18693955 29.61271202 119.19466209 27.80182266 C119.20445095 25.26900338 119.20158824 22.73649858 119.19555664 20.20367432 C119.20117615 19.45443695 119.20679565 18.70519958 119.21258545 17.93325806 C119.20767849 12.75404991 119.20767849 12.75404991 116.95263672 8.25396729 C113.89352582 6.37595698 111.58104135 6.00311871 108.01879883 6 C107.02621063 5.99436035 106.03362244 5.9887207 105.01095581 5.98291016 C103.92823395 5.98695862 102.84551208 5.99100708 101.72998047 5.99517822 C100.58490021 5.99167358 99.43981995 5.98816895 98.26004028 5.98455811 C94.470011 5.97574622 90.68016795 5.98158816 86.89013672 5.98834229 C84.25984664 5.98699548 81.6295568 5.98505482 78.99926758 5.98254395 C73.48467994 5.97890646 67.9701459 5.98369766 62.45556641 5.9932251 C56.0821411 6.00410926 49.70884376 6.00058353 43.33542156 5.98957229 C37.20155326 5.97939952 31.06774164 5.98048035 24.93386841 5.98633575 C22.32471702 5.98767173 19.71556238 5.98602635 17.10641479 5.98137665 C13.46261899 5.97630849 9.81907033 5.98402606 6.17529297 5.99517822 C5.09257111 5.99112976 4.00984924 5.9870813 2.89431763 5.98291016 C1.40543533 5.99136963 1.40543533 5.99136963 -0.11352539 6 C-0.97481552 6.00075405 -1.83610565 6.0015081 -2.72349548 6.002285 C-5.26967159 6.27804398 -6.8740894 6.91957964 -9.04736328 8.25396729 Z " fill="#1B1B1B" transform="translate(42.04736328125,30.74603271484375)"/>
<path d="M0 0 C4.05786755 0.81157351 6.15631425 1.43894566 9.625 3.3125 C13.21182014 5.17253006 16.74178313 6.68713095 20.5625 8 C24.98423956 9.54043677 28.88103185 11.4714267 32.91796875 13.828125 C35.85398767 15.48066848 38.87869015 16.73819389 42 18 C38.64029527 20.23980315 35.13438759 21.73853114 31.4375 23.3125 C26.76792987 25.32308199 22.14981094 27.36375339 17.625 29.6875 C11.94041659 32.60193109 6.05867284 34.98044239 0 37 C0 24.79 0 12.58 0 0 Z " fill="#3B8DE7" transform="translate(83,66)"/>
</svg>
